<svg width="33" height="32" viewBox="0 0 33 32" fill="none" xmlns="http://www.w3.org/2000/svg">
<rect opacity="0.5" x="0.73938" width="32" height="32" rx="8" fill="white" fill-opacity="0.3"/>
<path fill-rule="evenodd" clip-rule="evenodd" d="M16.7401 8C14.5674 8 14.2948 8.0095 13.4414 8.04833C12.5898 8.08733 12.0084 8.22217 11.4997 8.42C10.9736 8.62434 10.5272 8.89768 10.0826 9.34251C9.63756 9.78719 9.36422 10.2335 9.15922 10.7595C8.96088 11.2684 8.82588 11.8499 8.78755 12.7012C8.74938 13.5546 8.73938 13.8274 8.73938 16.0001C8.73938 18.1728 8.74905 18.4446 8.78771 19.298C8.82688 20.1496 8.96172 20.731 9.15938 21.2396C9.36389 21.7658 9.63722 22.2121 10.0821 22.6568C10.5266 23.1018 10.9729 23.3758 11.4987 23.5802C12.0077 23.778 12.5893 23.9128 13.4408 23.9518C14.2941 23.9907 14.5666 24.0002 16.7391 24.0002C18.912 24.0002 19.1838 23.9907 20.0372 23.9518C20.8888 23.9128 21.4708 23.778 21.9799 23.5802C22.5059 23.3758 22.9515 23.1018 23.396 22.6568C23.841 22.2121 24.1144 21.7658 24.3194 21.2398C24.516 20.731 24.651 20.1495 24.691 19.2981C24.7294 18.4448 24.7394 18.1728 24.7394 16.0001C24.7394 13.8274 24.7294 13.5547 24.691 12.7014C24.651 11.8497 24.516 11.2684 24.3194 10.7597C24.1144 10.2335 23.841 9.78719 23.396 9.34251C22.951 8.89751 22.506 8.62417 21.9794 8.42C21.4693 8.22217 20.8877 8.08733 20.036 8.04833C19.1827 8.0095 18.911 8 16.7376 8H16.7401ZM16.0225 9.44168C16.1618 9.44146 16.3117 9.44153 16.4735 9.4416L16.7401 9.44168C18.8762 9.44168 19.1293 9.44935 19.9728 9.48768C20.7528 9.52335 21.1762 9.65368 21.4582 9.76319C21.8315 9.90819 22.0977 10.0815 22.3775 10.3615C22.6575 10.6415 22.8309 10.9082 22.9762 11.2815C23.0857 11.5632 23.2162 11.9865 23.2517 12.7665C23.29 13.6099 23.2984 13.8632 23.2984 15.9983C23.2984 18.1333 23.29 18.3866 23.2517 19.23C23.216 20.01 23.0857 20.4333 22.9762 20.715C22.8312 21.0883 22.6575 21.3541 22.3775 21.634C22.0975 21.914 21.8317 22.0873 21.4582 22.2323C21.1765 22.3423 20.7528 22.4723 19.9728 22.508C19.1295 22.5463 18.8762 22.5547 16.7401 22.5547C14.6039 22.5547 14.3508 22.5463 13.5074 22.508C12.7274 22.472 12.3041 22.3416 12.0219 22.2321C11.6486 22.0871 11.3819 21.9138 11.1019 21.6338C10.8219 21.3538 10.6486 21.0878 10.5032 20.7143C10.3937 20.4326 10.2632 20.0093 10.2277 19.2293C10.1894 18.3859 10.1817 18.1326 10.1817 15.9962C10.1817 13.8599 10.1894 13.6079 10.2277 12.7645C10.2634 11.9845 10.3937 11.5612 10.5032 11.2792C10.6482 10.9059 10.8219 10.6392 11.1019 10.3592C11.3819 10.0792 11.6486 9.90585 12.0219 9.76052C12.3039 9.65052 12.7274 9.52052 13.5074 9.48468C14.2454 9.45135 14.5314 9.44135 16.0225 9.43968V9.44168Z" fill="white"/>
<path d="M20.0504 11.7297C20.0504 11.1996 20.4804 10.77 21.0104 10.77C21.5404 10.77 21.9704 11.1997 21.9704 11.7297C21.9704 12.2597 21.5404 12.6897 21.0104 12.6897C20.4804 12.6897 20.0504 12.2597 20.0504 11.7297Z" fill="white"/>
<path d="M19.4068 16.0001C19.4068 14.5272 18.2127 13.3334 16.7401 13.3334C15.2672 13.3334 14.0734 14.5272 14.0734 16.0001C14.0734 17.4728 15.2672 18.6668 16.7401 18.6668C18.2127 18.6668 19.4068 17.4728 19.4068 16.0001Z" fill="white"/>
</svg>
