<svg width="16" height="16" viewBox="0 0 16 16" fill="none" xmlns="http://www.w3.org/2000/svg">
<path fill-rule="evenodd" clip-rule="evenodd" d="M14.2303 0.283792C13.6017 0.569541 6.51508 3.88423 0.742948 6.57028C0.285749 6.79887 0 7.25607 0 7.71327C0 8.17047 0.342899 8.51337 0.742948 8.57052C1.08585 8.62767 4.51484 9.14202 4.51484 9.14202L5.48639 14.857L6.00073 12.3424L5.25779 8.57052L12.2301 3.42703L6.51508 9.71352L8.51533 11.9995C8.62963 12.1138 11.0871 14.9713 11.2585 15.1428C11.5443 15.4285 12.0015 16 12.2301 16C12.6301 16 13.0302 15.4285 13.2016 14.5713C13.3731 13.7712 14.5161 8.22762 15.9448 0.85529C16.1163 0.0551922 15.3733 -0.287707 14.2303 0.283792Z" fill="white"/>
</svg>
