<svg width="33" height="32" viewBox="0 0 33 32" fill="none" xmlns="http://www.w3.org/2000/svg">
<rect opacity="0.5" x="0.73938" width="32" height="32" rx="8" fill="white" fill-opacity="0.3"/>
<path fill-rule="evenodd" clip-rule="evenodd" d="M23.6941 10.8438C24.1658 11.3318 24.3197 12.44 24.3197 12.44C24.3197 12.44 24.4771 13.7417 24.4771 15.0428V16.2631C24.4771 17.5648 24.3197 18.8659 24.3197 18.8659C24.3197 18.8659 24.1658 19.9741 23.6941 20.4621C23.1549 21.0394 22.557 21.0991 22.2191 21.1328C22.1819 21.1365 22.1479 21.1399 22.1174 21.1436C19.9151 21.3064 16.6082 21.3115 16.6082 21.3115C16.6082 21.3115 12.5164 21.2733 11.2574 21.1496C11.1978 21.1383 11.1254 21.1294 11.0436 21.1194C10.6448 21.0705 10.0188 20.9937 9.52184 20.4621C9.0502 19.9741 8.89676 18.8659 8.89676 18.8659C8.89676 18.8659 8.73938 17.5648 8.73938 16.2631V15.0428C8.73938 13.7417 8.89676 12.44 8.89676 12.44C8.89676 12.44 9.0502 11.3318 9.52184 10.8438C10.0623 10.2657 10.6607 10.2067 10.9987 10.1734C11.0354 10.1698 11.0689 10.1665 11.0991 10.1628C13.3013 10 16.6048 10 16.6048 10H16.6117C16.6117 10 19.9151 10 22.1174 10.1628C22.1475 10.1665 22.1811 10.1698 22.2178 10.1734C22.5555 10.2067 23.1542 10.2658 23.6941 10.8438ZM14.9828 13.2231L14.9833 17.7418L19.2349 15.4903L14.9828 13.2231Z" fill="white"/>
</svg>
